<svg xmlns="http://www.w3.org/2000/svg" version="1.1" xmlns:xlink="http://www.w3.org/1999/xlink" xmlns:svgjs="http://svgjs.dev/svgjs" width="1000" height="669" viewBox="0 0 1000 669"><g transform="matrix(1,0,0,1,-0.6060011210433913,0.1536388819555441)"><svg viewBox="0 0 396 265" data-background-color="#ffffff" preserveAspectRatio="xMidYMid meet" height="669" width="1000" xmlns="http://www.w3.org/2000/svg" xmlns:xlink="http://www.w3.org/1999/xlink"><defs></defs><g id="tight-bounds" transform="matrix(1,0,0,1,0.2399764439331875,-0.060854633353500276)"><svg viewBox="0 0 395.52 265.12171308435234" height="265.12171308435234" width="395.52"><g><svg viewBox="0 0 395.52 265.12171308435234" height="265.12171308435234" width="395.52"><g transform="matrix(1,0,0,1,0,134.79190117463367)"><svg viewBox="0 0 395.52 130.32981190971867" height="130.32981190971867" width="395.52"><g><svg viewBox="0 0 395.52 130.32981190971867" height="130.32981190971867" width="395.52"><g><svg viewBox="0 0 395.52 73.54972601367535" height="73.54972601367535" width="395.52"><g transform="matrix(1,0,0,1,0,0)"><svg width="395.52" viewBox="3.211268424987793 -20.329299926757812 260.5533752441406 48.45173645019531" height="73.54972601367535" data-palette-color="#F7B617"><path d="M23.061-14.453v0c-3.765-0.757-6.988-0.099-9.669 1.973-2.68 2.066-4.458 5.278-5.334 9.638v0c-0.901 4.484-0.549 8.159 1.058 11.025 1.607 2.866 4.358 4.691 8.253 5.474v0c2.386 0.48 5.197 0.599 8.435 0.359v0l-0.702 3.49c-2.558 0.411-5.578 0.266-9.062-0.434v0c-5.039-1.013-8.623-3.328-10.752-6.945-2.124-3.609-2.619-8.234-1.485-13.875v0c0.71-3.529 1.991-6.488 3.845-8.877 1.854-2.388 4.17-4.051 6.95-4.988 2.779-0.937 5.855-1.067 9.227-0.389v0c3.595 0.723 6.603 2.011 9.026 3.865v0l-2.375 3.082c-2.349-1.744-4.821-2.877-7.415-3.398zM65.691 6.603v0c-0.797 5.536-2.823 9.687-6.077 12.45-3.255 2.771-7.377 3.797-12.366 3.079v0c-5.088-0.733-8.793-2.856-11.115-6.369-2.316-3.513-3.066-8.106-2.249-13.781v0c0.812-5.635 2.826-9.801 6.043-12.497 3.225-2.701 7.391-3.684 12.498-2.948v0c4.969 0.716 8.622 2.851 10.959 6.407 2.337 3.556 3.106 8.109 2.307 13.659zM38.135 2.634v0c-0.675 4.685-0.19 8.382 1.454 11.091 1.644 2.709 4.366 4.337 8.167 4.884v0c3.834 0.552 6.901-0.239 9.202-2.373 2.308-2.133 3.8-5.548 4.476-10.246v0c0.67-4.652 0.205-8.319-1.396-11.002-1.606-2.69-4.316-4.309-8.13-4.858v0c-3.834-0.552-6.921 0.239-9.263 2.374-2.342 2.135-3.845 5.512-4.51 10.13zM91.027 26.466l-19.399-1.767 3.17-34.796 4.053 0.369-2.836 31.131 15.346 1.399zM117.128 24.052l-0.178 3.625-19.457-0.958 1.718-34.897 19.457 0.958-0.178 3.605-15.391-0.758-0.554 11.247 14.463 0.712-0.176 3.575-14.463-0.711-0.632 12.844zM140.273-4.168v0c-3.84 0.005-6.868 1.288-9.086 3.85-2.217 2.556-3.323 6.057-3.317 10.504v0c0.005 4.573 1.08 8.105 3.222 10.596 2.143 2.491 5.201 3.734 9.174 3.73v0c2.433-0.003 5.213-0.443 8.339-1.32v0l0.004 3.56c-2.426 0.91-5.415 1.366-8.968 1.37v0c-5.14 0.006-9.112-1.553-11.916-4.676-2.797-3.117-4.199-7.552-4.205-13.305v0c-0.004-3.6 0.665-6.754 2.008-9.462 1.343-2.708 3.284-4.797 5.823-6.267 2.538-1.47 5.527-2.207 8.967-2.21v0c3.667-0.004 6.871 0.662 9.613 1.998v0l-1.716 3.492c-2.648-1.244-5.296-1.864-7.942-1.86zM166.005-4.593l1.617 31.288-4.065 0.21-1.617-31.288-11.045 0.571-0.187-3.605 26.155-1.352 0.187 3.605zM188.305 25.369l-4.057 0.316-2.72-34.834 4.058-0.316zM226.357 3.121v0c0.688 5.551-0.174 10.088-2.585 13.612-2.411 3.53-6.117 5.605-11.119 6.225v0c-5.101 0.632-9.234-0.441-12.4-3.219-3.159-2.779-5.092-7.014-5.797-12.703v0c-0.7-5.65 0.146-10.199 2.54-13.646 2.4-3.455 6.16-5.5 11.281-6.135v0c4.982-0.618 9.068 0.481 12.259 3.297 3.191 2.816 5.131 7.005 5.821 12.569zM198.728 6.547v0c0.582 4.697 2.023 8.136 4.322 10.316 2.299 2.18 5.354 3.034 9.165 2.562v0c3.844-0.477 6.595-2.047 8.253-4.711 1.665-2.665 2.205-6.353 1.621-11.064v0c-0.578-4.664-1.993-8.08-4.242-10.245-2.258-2.172-5.299-3.021-9.123-2.547v0c-3.844 0.477-6.614 2.053-8.312 4.728-1.697 2.676-2.258 6.329-1.684 10.961zM257.444-20.329l6.321 34.363-4.554 0.838-24.089-25.381-0.187 0.034c0.878 3.336 1.576 6.414 2.095 9.234v0l3.593 19.532-3.698 0.68-6.321-34.363 4.514-0.831 24.018 25.272 0.187-0.034c-0.11-0.414-0.432-1.758-0.965-4.032-0.527-2.276-0.868-3.911-1.024-4.906v0l-3.628-19.719z" opacity="1" transform="matrix(1,0,0,1,0,0)" fill="#F7B617" class="undefined-text-0" data-fill-palette-color="primary" id="text-0"></path></svg></g></svg></g><g transform="matrix(1,0,0,1,141.20257822944598,95.86017233825034)"><svg viewBox="0 0 113.114843541108 34.46963957146835" height="34.46963957146835" width="113.114843541108"><g transform="matrix(1,0,0,1,0,0)"><svg width="113.114843541108" viewBox="0.75 -37.5 124.69000244140625 38" height="34.46963957146835" data-palette-color="#F7B617"><path d="M14.5-23.4L14.5-23.4Q12.3-23.4 11.35-21 10.4-18.6 10.4-13.05L10.4-13.05 10.4-10.45Q10.4-5.5 11.5-3.35 12.6-1.2 15.55-1.2 18.5-1.2 20.25-3.2 22-5.2 22.5-7.75L22.5-7.75 23.4-7.65Q22.45-3.35 19.9-1.45L19.9-1.45Q17.3 0.5 12.75 0.5L12.75 0.5Q6.95 0.5 3.85-2.63 0.75-5.75 0.75-11.78 0.75-17.8 4.28-21.05 7.8-24.3 14.1-24.3L14.1-24.3Q18.55-24.3 20.9-22.58 23.25-20.85 23.25-18.25 23.25-15.65 22.13-14.45 21-13.25 19.03-13.25 17.05-13.25 15.85-14.3 14.65-15.35 14.65-17.4L14.65-17.4Q14.65-18.3 14.9-19.2L14.9-19.2 16.55-19.2Q16.9-20.2 16.9-21L16.9-21Q16.9-23.4 14.5-23.4ZM23.95-36.6L23.95-37.5 36.2-37.5 36.2-0.9 39-0.9 39 0 24.15 0 24.15-0.9 26.9-0.9 26.9-36.6 23.95-36.6ZM56.1-9.85L56.1-9.85 56.1-14.1Q56.1-18.95 55.57-21.18 55.05-23.4 53.15-23.4L53.15-23.4Q52.05-23.4 51.37-22.78 50.7-22.15 50.4-20.7L50.4-20.7Q49.95-18.45 49.95-13.85L49.95-13.85 49.95-9.95Q49.95-4.5 50.27-3.4 50.6-2.3 50.95-1.6L50.95-1.6Q51.5-0.4 53.1-0.4L53.1-0.4Q55.05-0.4 55.65-2.65L55.65-2.65Q56.1-4.25 56.1-9.85ZM53 0.5Q46.75 0.5 43.55-2.7 40.35-5.9 40.35-11.88 40.35-17.85 43.77-21.08 47.2-24.3 53.4-24.3 59.6-24.3 62.65-21.33 65.7-18.35 65.7-12.25L65.7-12.25Q65.7 0.5 53 0.5L53 0.5ZM96.34-0.9L96.34 0 84.94 0 84.39-3.65Q83.59-1.65 82.02-0.58 80.44 0.5 77.34 0.5L77.34 0.5Q69.59 0.5 69.59-7.85L69.59-7.85 69.59-22.9 66.79-22.9 66.79-23.8 78.89-23.8 78.89-6.65Q78.89-3.65 79.32-2.7 79.74-1.75 81.02-1.75 82.29-1.75 83.29-3.3 84.29-4.85 84.29-7.6L84.29-7.6 84.29-22.9 81.99-22.9 81.99-23.8 93.59-23.8 93.59-0.9 96.34-0.9ZM107.49-10.35Q107.49-5.1 108.04-3.38 108.59-1.65 110.07-1.65 111.54-1.65 112.62-2.95 113.69-4.25 113.69-6.8L113.69-6.8 113.69-17.7Q113.69-19.85 112.84-21.35 111.99-22.85 110.34-22.85 108.69-22.85 108.09-20.65 107.49-18.45 107.49-12.95L107.49-12.95 107.49-10.35ZM125.44 0L114.34 0 113.79-3.5Q112.09 0.5 106.89 0.5L106.89 0.5Q102.59 0.5 100.22-2.6 97.84-5.7 97.84-11.85L97.84-11.85Q97.84-24.3 107.74-24.3L107.74-24.3Q112.14-24.3 113.54-21.85L113.54-21.85 113.54-36.6 110.49-36.6 110.49-37.5 122.99-37.5 122.99-0.9 125.44-0.9 125.44 0Z" opacity="1" transform="matrix(1,0,0,1,0,0)" fill="#F7B617" class="undefined-text-1" data-fill-palette-color="secondary" id="text-1"></path></svg></g></svg></g></svg></g></svg></g><g transform="matrix(1,0,0,1,100.9039518931533,0)"><svg viewBox="0 0 193.71209621369337 130.32981190971867" height="130.32981190971867" width="193.71209621369337"><g><svg xmlns="http://www.w3.org/2000/svg" xmlns:xlink="http://www.w3.org/1999/xlink" version="1.1" x="0" y="0" viewBox="2.062999725341797 6.624000549316406 27.873001098632812 18.753000259399414" enable-background="new 0 0 32 32" xml:space="preserve" height="130.32981190971867" width="193.71209621369337" class="icon-icon-0" data-fill-palette-color="accent" id="icon-0"><path d="M8.063 25.377c-3.313 0-6-2.688-6-6l0 0c0.002-2.668 1.733-4.899 4.127-5.688l0 0c0.083-2.26 1.937-4.063 4.216-4.065l0 0c0.729 0 1.415 0.189 2.01 0.517l0 0c1.267-2.104 3.57-3.517 6.208-3.517l0 0c3.947 0.002 7.156 3.154 7.248 7.078l0 0c2.361 0.805 4.062 3.034 4.064 5.667l0 0c0 3.312-2.688 6-6 6l0 0H8.063V25.377zM24.665 15.451c-0.512-0.096-0.864-0.562-0.814-1.078l0 0c0.021-0.172 0.026-0.336 0.026-0.498l0 0c-0.007-2.898-2.353-5.244-5.251-5.248l0 0c-2.249-0.002-4.162 1.418-4.911 3.41l0 0c-0.122 0.322-0.405 0.563-0.748 0.629l0 0c-0.34 0.066-0.693-0.052-0.927-0.309l0 0c-0.416-0.453-0.985-0.73-1.633-0.73l0 0c-1.225 0.002-2.216 0.992-2.22 2.217l0 0c0 0.137 0.017 0.277 0.045 0.425l0 0c0.049 0.267-0.008 0.54-0.163 0.762l0 0c-0.155 0.224-0.393 0.371-0.657 0.414l0 0c-1.899 0.312-3.352 1.95-3.35 3.93l0 0c0.004 2.209 1.792 3.996 4.001 4.002l0 0h15.875c2.209-0.006 3.994-1.793 3.998-4.002l0 0C27.938 17.418 26.524 15.794 24.665 15.451L24.665 15.451" fill="#F7B617" data-fill-palette-color="accent"></path></svg></g></svg></g><g></g></svg></g></svg><rect width="395.52" height="265.12171308435234" fill="none" stroke="none" visibility="hidden"></rect></g></svg></g></svg>